<svg id="Layer_1" data-name="Layer 1" xmlns="http://www.w3.org/2000/svg" viewBox="0 0 548 390.3"><defs><style>.cls-1{fill:none;stroke:#d0d8dc;stroke-miterlimit:10;stroke-width:2px;}.cls-2{fill:#d0d8dc;}.cls-3{fill:#cbeafb;}.cls-4{fill:#57a7db;}.cls-5{fill:#fff;}.cls-6{fill:#81c784;}.cls-7{fill:#f4ae7a;}.cls-8{fill:#fc6142;}.cls-9{fill:#fcd156;}.cls-10{fill:#95c8ec;}.cls-11{fill:#b0bec5;}.cls-12{fill:#5fb75f;}</style></defs><title>Development-based-on-a-requirements-specification</title><polyline class="cls-1" points="215.57 108.5 69.73 108.5 69.73 168.32"/><path id="_Path_3" data-name=" Path 3" class="cls-2" d="M191.49,112.53H198v1.57a4.5,4.5,0,0,0,4.49,4.49h41a4.5,4.5,0,0,0,4.49-4.49v-1.57h6.51v-8.08h-6.45v-1.57a4.5,4.5,0,0,0-4.49-4.49h-41a4.5,4.5,0,0,0-4.49,4.49v1.57h-6.51Z"/><path id="_Path_3-2" data-name=" Path 3" class="cls-2" d="M65.69,142.26v6.51H64.11a4.5,4.5,0,0,0-4.49,4.49v41a4.5,4.5,0,0,0,4.49,4.49h1.57v6.51h8.08v-6.45h1.57a4.5,4.5,0,0,0,4.49-4.49v-41a4.5,4.5,0,0,0-4.49-4.49H73.76v-6.51Z"/><rect class="cls-3" x="216.67" y="36.19" width="283.1" height="314.06"/><rect class="cls-4" x="216.67" y="339.62" width="283.1" height="15.81"/><rect class="cls-4" x="216.67" y="36.19" width="283.1" height="23.83"/><rect class="cls-5" x="280.97" y="299.92" width="18.93" height="3.91"/><rect class="cls-6" x="368.51" y="299.92" width="18.93" height="3.91"/><rect class="cls-5" x="280.97" y="287.96" width="78.97" height="3.91"/><rect class="cls-7" x="262.04" y="323.85" width="10.03" height="3.91"/><rect class="cls-7" x="262.04" y="84.57" width="11.75" height="3.91"/><rect class="cls-6" x="262.04" y="108.5" width="13.47" height="3.91"/><rect class="cls-5" x="280.97" y="108.5" width="37.57" height="3.91"/><rect class="cls-5" x="272.36" y="120.46" width="20.36" height="3.91"/><rect class="cls-5" x="354.03" y="120.46" width="20.35" height="3.91"/><rect class="cls-4" x="378.7" y="120.46" width="20.36" height="3.91"/><rect class="cls-5" x="299.9" y="120.46" width="46.85" height="3.91"/><rect class="cls-4" x="280.97" y="132.42" width="27.24" height="3.91"/><rect class="cls-5" x="315.96" y="132.42" width="58.42" height="3.91"/><rect class="cls-6" x="293.02" y="156.35" width="16.91" height="3.91"/><rect class="cls-7" x="293.02" y="168.32" width="16.91" height="3.91"/><rect class="cls-5" x="317.45" y="156.35" width="52.06" height="3.91"/><rect class="cls-5" x="317.45" y="168.32" width="72.42" height="3.91"/><rect class="cls-4" x="305.07" y="180.28" width="17.28" height="3.91"/><rect class="cls-5" x="317.45" y="192.24" width="115.78" height="3.91"/><rect class="cls-5" x="317.45" y="204.21" width="38.33" height="3.91"/><rect class="cls-4" x="362.59" y="204.21" width="17.11" height="3.91"/><rect class="cls-5" x="385.64" y="204.21" width="17.11" height="3.91"/><rect class="cls-7" x="274.08" y="216.17" width="11.75" height="3.91"/><rect class="cls-4" x="279.25" y="228.14" width="29.26" height="3.91"/><rect class="cls-4" x="439.32" y="228.14" width="20.65" height="3.91"/><rect class="cls-5" x="315.36" y="228.14" width="115.15" height="3.91"/><rect class="cls-5" x="296.46" y="240.1" width="97.73" height="3.91"/><rect class="cls-5" x="296.46" y="252.06" width="118.08" height="3.91"/><rect class="cls-4" x="289.57" y="264.03" width="13.77" height="3.91"/><rect class="cls-4" x="274.08" y="275.99" width="20.65" height="3.91"/><rect class="cls-5" x="307.22" y="299.92" width="52.72" height="3.91"/><circle class="cls-8" cx="232.19" cy="47.93" r="4.46"/><circle class="cls-6" cx="247.6" cy="47.93" r="4.46"/><circle class="cls-9" cx="263.01" cy="47.93" r="4.46"/><path class="cls-10" d="M138.76,161.84H61.09a8.39,8.39,0,0,0-8.36,8.37V347.07a8.38,8.38,0,0,0,8.36,8.36h138.6a8.38,8.38,0,0,0,8.36-8.36V170.21a8.39,8.39,0,0,0-8.36-8.37Z"/><path class="cls-5" d="M188.62,173.77H72.16a7,7,0,0,0-7,7V336.18a7.05,7.05,0,0,0,7,7H188.61a7,7,0,0,0,7-7V180.79A7,7,0,0,0,188.62,173.77Z"/><path class="cls-6" d="M145.1,153.06a14.71,14.71,0,0,0-29.43,0H83.45V182.5h93.88V153.06Z"/><circle class="cls-5" cx="130.39" cy="153.55" r="6.39"/><path class="cls-11" d="M111.69,282.65H84a6,6,0,0,1-6-6V249a6,6,0,0,1,6-6h27.67a6,6,0,0,1,6,6v27.66A6,6,0,0,1,111.69,282.65ZM84,246.71A2.28,2.28,0,0,0,81.75,249v27.66A2.28,2.28,0,0,0,84,278.93h27.67a2.28,2.28,0,0,0,2.27-2.28V249a2.28,2.28,0,0,0-2.27-2.27Z"/><path class="cls-11" d="M111.69,328.7H84a6,6,0,0,1-6-6V295a6,6,0,0,1,6-6h27.67a6,6,0,0,1,6,6v27.66A6,6,0,0,1,111.69,328.7ZM84,292.77A2.28,2.28,0,0,0,81.75,295v27.66A2.28,2.28,0,0,0,84,325h27.67a2.28,2.28,0,0,0,2.27-2.28V295a2.28,2.28,0,0,0-2.27-2.27Z"/><rect class="cls-12" x="83.45" y="173.77" width="93.88" height="8.72"/><rect class="cls-11" x="126.45" y="203.33" width="22.73" height="4.29"/><rect class="cls-11" x="126.45" y="214.2" width="59.49" height="4.29"/><rect class="cls-11" x="126.45" y="224.77" width="59.49" height="4.29"/><rect class="cls-11" x="126.45" y="260.33" width="59.49" height="4.29"/><rect class="cls-11" x="126.45" y="270.9" width="59.49" height="4.29"/><rect class="cls-11" x="126.45" y="306.28" width="59.49" height="4.29"/><rect class="cls-11" x="126.45" y="316.86" width="59.49" height="4.29"/><rect class="cls-11" x="126.45" y="249.38" width="22.73" height="4.29"/><rect class="cls-11" x="126.45" y="295.43" width="22.73" height="4.29"/><path class="cls-11" d="M111.69,236.59H84a6,6,0,0,1-6-6V202.93a6,6,0,0,1,6-6h27.67a6,6,0,0,1,6,6V230.6A6,6,0,0,1,111.69,236.59ZM84,200.66a2.28,2.28,0,0,0-2.27,2.27V230.6A2.28,2.28,0,0,0,84,232.87h27.67A2.28,2.28,0,0,0,114,230.6V202.93a2.28,2.28,0,0,0-2.27-2.27Z"/><path class="cls-7" d="M96.74,212.06h-.05l-3.36,1.6-.68-3.09,4.66-2.17h3.41V226h-4Z"/><path class="cls-7" d="M91.48,271.41v-2.49l2.27-2.06c3.84-3.44,5.71-5.41,5.77-7.47,0-1.43-.87-2.57-2.9-2.57a6.38,6.38,0,0,0-3.76,1.46l-1.16-3a9.74,9.74,0,0,1,5.77-1.81c4,0,6.17,2.33,6.17,5.52,0,3-2.14,5.31-4.68,7.58L97.33,268V268H104v3.38Z"/><path class="cls-7" d="M92.21,314.18a9.7,9.7,0,0,0,4.09,1.08c2.14,0,3.22-1,3.22-2.36,0-1.73-1.73-2.52-3.55-2.52H94.3v-3h1.6c1.38,0,3.14-.54,3.14-2,0-1.06-.87-1.84-2.6-1.84a8,8,0,0,0-3.68,1.06l-.84-3a11,11,0,0,1,5.44-1.33c3.76,0,5.85,2,5.85,4.39,0,1.87-1.06,3.33-3.22,4.09v.05a4.37,4.37,0,0,1,3.82,4.28c0,3.11-2.73,5.39-7.2,5.39a10.4,10.4,0,0,1-5.22-1.25Z"/><circle class="cls-6" cx="207.61" cy="321.15" r="46.91"/><path class="cls-5" d="M197.64,335.84,178,324.46V320.1l19.64-12.83v7.53l-12,7.18,12,6.39Z"/><path class="cls-5" d="M216.62,302.75,206,340.86h-6.72l10.59-38.11Z"/><path class="cls-5" d="M218.1,328.36l12-6.39-12-7.18v-7.53l19.64,12.83v4.36L218.1,335.84Z"/></svg>