<svg id="Layer_1" data-name="Layer 1" xmlns="http://www.w3.org/2000/svg" viewBox="0 0 548 390.3"><defs><style>.cls-1,.cls-14{fill:none;}.cls-1{stroke:#d0d8dc;stroke-miterlimit:10;stroke-width:2px;}.cls-2{fill:#d0d8dc;}.cls-3{fill:#cbeafb;}.cls-4{fill:#95c8ec;}.cls-5{fill:#fff;}.cls-6{fill:#e4f2fb;}.cls-7{fill:#a3d1ee;}.cls-8{fill:#57a7db;}.cls-9{fill:#f6be95;}.cls-10{fill:#f4ae7a;}.cls-11{fill:#b0bec5;}.cls-12{fill:#78909c;}.cls-13{fill:#81c784;}.cls-14{stroke:#fff;stroke-linecap:round;stroke-linejoin:round;stroke-width:5.35px;}</style></defs><title>Full-cycle-development</title><polyline class="cls-1" points="158.13 100.34 59.6 100.34 59.6 220.16"/><polyline id="_Path_" data-name=" Path " class="cls-1" points="274 283.93 516 283.93 516 76.59 477.07 76.59"/><path id="_Path_2" data-name=" Path 2" class="cls-2" d="M429.87,79.65h6.82V81.3a4.71,4.71,0,0,0,4.7,4.7h43a4.71,4.71,0,0,0,4.7-4.7V79.65h6.82V71.19H489.1V69.54a4.71,4.71,0,0,0-4.7-4.7h-43a4.71,4.71,0,0,0-4.7,4.7v1.65h-6.82Z"/><path id="_Path_3" data-name=" Path 3" class="cls-2" d="M124.72,104.58h6.82v1.65a4.71,4.71,0,0,0,4.7,4.7h43a4.71,4.71,0,0,0,4.7-4.7v-1.65h6.82V96.11H184V94.47a4.71,4.71,0,0,0-4.7-4.7h-43a4.71,4.71,0,0,0-4.7,4.7v1.65h-6.82Z"/><path id="_Path_4" data-name=" Path 4" class="cls-2" d="M55.61,186.69v6.82H54a4.71,4.71,0,0,0-4.7,4.7v43a4.71,4.71,0,0,0,4.7,4.7h1.65v6.82h8.46v-6.82h1.65a4.71,4.71,0,0,0,4.7-4.7v-43a4.71,4.71,0,0,0-4.7-4.7H64.07v-6.82Z"/><path id="_Path_5" data-name=" Path 5" class="cls-2" d="M290.92,279.93H284.1v-1.65a4.71,4.71,0,0,0-4.7-4.7h-43a4.71,4.71,0,0,0-4.7,4.7v1.65h-6.82v8.46h6.82V290a4.71,4.71,0,0,0,4.7,4.7h43a4.71,4.71,0,0,0,4.7-4.7v-1.65h6.82Z"/><g id="_Group_2" data-name=" Group 2"><rect class="cls-3" x="153.9" y="39.55" width="299.58" height="212.54"/></g><rect class="cls-4" x="153.9" y="39.55" width="299.58" height="39.92"/><path class="cls-5" d="M173.81,66.79l-7.47-7.47,7.47-7.47-2.3-2.3L162,59.13l9.58,9.58Zm8.43,0,7.47-7.47-7.47-7.47,2.3-2.3,9.58,9.58-9.58,9.57Z"/><rect class="cls-4" x="161.94" y="89.05" width="68.31" height="72.65"/><rect class="cls-4" x="240.24" y="103.11" width="203.72" height="58.59"/><rect class="cls-4" x="240.24" y="89.29" width="203.72" height="11.05"/><rect class="cls-6" x="240.24" y="169.56" width="203.72" height="72.65"/><rect class="cls-6" x="161.94" y="169.56" width="68.31" height="72.65"/><rect class="cls-3" x="167.52" y="181.64" width="40.93" height="5.66"/><rect class="cls-3" x="211.51" y="181.64" width="13.75" height="5.66"/><rect class="cls-3" x="167.52" y="190.76" width="29.33" height="5.66"/><rect class="cls-3" x="199.9" y="190.99" width="25.74" height="5.66"/><rect class="cls-3" x="167.52" y="199.89" width="38.92" height="5.66"/><rect class="cls-3" x="209.39" y="199.89" width="10.97" height="5.66"/><rect class="cls-3" x="167.52" y="209.13" width="50.22" height="5.66"/><rect class="cls-3" x="167.52" y="218.25" width="29.01" height="5.66"/><rect class="cls-3" x="199.26" y="218.25" width="18.46" height="5.66"/><rect class="cls-3" x="167.52" y="227.38" width="50.22" height="5.66"/><rect class="cls-7" x="247.66" y="180.71" width="129.15" height="5.66"/><rect class="cls-7" x="386.47" y="180.71" width="43.4" height="5.66"/><rect class="cls-7" x="247.66" y="189.84" width="92.54" height="5.66"/><rect class="cls-7" x="349.85" y="190.07" width="81.21" height="5.66"/><rect class="cls-7" x="247.66" y="198.97" width="122.83" height="5.66"/><rect class="cls-7" x="379.8" y="198.97" width="34.62" height="5.66"/><rect class="cls-7" x="247.66" y="208.21" width="149.45" height="5.66"/><rect class="cls-7" x="247.66" y="217.33" width="91.53" height="5.66"/><rect class="cls-7" x="342.15" y="217.33" width="54.95" height="5.66"/><rect class="cls-7" x="247.66" y="226.46" width="149.45" height="5.66"/><rect class="cls-8" x="251.43" y="114.16" width="35.93" height="35.93"/><rect class="cls-8" x="299.33" y="114.16" width="35.93" height="35.93"/><rect class="cls-8" x="347.24" y="114.16" width="35.93" height="35.93"/><rect class="cls-8" x="395.14" y="114.16" width="35.93" height="35.93"/><rect class="cls-9" x="99.02" y="187.97" width="11.08" height="25.86"/><rect class="cls-9" x="176.61" y="187.97" width="11.08" height="25.86"/><path class="cls-10" d="M187.69,189.45c0,3.33-3.32,5.91-8.5,5.91H107.52c-5.54,0-8.5-2.58-8.5-5.91V179.1c0-3.69,3.32-5.91,8.5-5.91h71.31c5.54,0,8.87,2.22,8.87,5.91Z"/><path class="cls-11" d="M257.89,353.87a11.51,11.51,0,0,1-11.45,11.45H40.27a11.51,11.51,0,0,1-11.45-11.45V221.6a11.51,11.51,0,0,1,11.45-11.45H246.44a11.51,11.51,0,0,1,11.45,11.45Z"/><path class="cls-12" d="M143.35,299.55c51.73,0,96.07-18.1,114.54-43.23V222c0-6.28-5.91-11.45-12.19-11.45H40.27a11,11,0,0,0-11.44,10.54q0,.25,0,.51V256c18.47,25.49,62.81,43.6,114.54,43.6Z"/><path class="cls-6" d="M158.13,317.29c0,3-2.22,3.69-5.54,3.69h-18.1c-3.32,0-5.54-.74-5.54-3.69V280.71c0-3,2.22-.37,5.54-.37h18.1c3.33,0,5.54-2.59,5.54.37Z"/><path class="cls-13" d="M150.74,312.12c0,1.48-.37,1.48-2.22,1.48H138.18c-1.85,0-2.22,0-2.22-1.48V287.36c0-1.48,1.11.37,3.32.37h8.5c1.85,0,3-1.85,3-.37Z"/><circle class="cls-13" cx="402.73" cy="283.96" r="84.99"/><path class="cls-5" d="M284.64,124.21l-19.07,19.07a.43.43,0,0,1-.61,0h0l-10.83-10.83a.43.43,0,0,1,0-.61h0l2.63-2.63a.43.43,0,0,1,.61,0h0l7.9,7.9L281.42,121a.43.43,0,0,1,.61,0h0l2.63,2.63a.43.43,0,0,1,0,.61h0Z"/><path class="cls-5" d="M332.54,124.21l-19.07,19.07a.43.43,0,0,1-.61,0h0L302,132.46a.43.43,0,0,1,0-.61h0l2.63-2.63a.43.43,0,0,1,.61,0h0l7.9,7.9L329.32,121a.43.43,0,0,1,.61,0h0l2.63,2.63a.43.43,0,0,1,0,.61h0Z"/><path class="cls-5" d="M380.45,124.21l-19.07,19.07a.43.43,0,0,1-.61,0h0l-10.83-10.83a.43.43,0,0,1,0-.61h0l2.63-2.63a.43.43,0,0,1,.61,0h0l7.9,7.9L377.22,121a.43.43,0,0,1,.61,0h0l2.63,2.63a.43.43,0,0,1,0,.61h0Z"/><path class="cls-5" d="M428.92,124.21l-19.07,19.07a.43.43,0,0,1-.61,0h0l-10.83-10.83a.43.43,0,0,1,0-.61h0l2.63-2.63a.43.43,0,0,1,.61,0h0l7.9,7.9L425.7,121a.43.43,0,0,1,.61,0h0l2.63,2.63a.43.43,0,0,1,0,.61h0Z"/><path class="cls-5" d="M220.15,113.27,191,142.43a.65.65,0,0,1-.92,0h0l-16.55-16.56a.65.65,0,0,1,0-.92h0l4-4a.65.65,0,0,1,.92,0h0L190.53,133l24.69-24.69a.65.65,0,0,1,.92,0h0l4,4a.65.65,0,0,1,0,.92h0Z"/><path class="cls-13" d="M433.56,212.81l-17.72,17.72a.4.4,0,0,1-.56,0h0l-10.06-10.06a.4.4,0,0,1,0-.56h0l2.45-2.45a.4.4,0,0,1,.56,0h0l7.34,7.34,15-15a.4.4,0,0,1,.56,0h0l2.45,2.45a.4.4,0,0,1,0,.56h0Z"/><path class="cls-14" d="M455,292.11a52.9,52.9,0,0,1-104.82-2"/><polygon class="cls-5" points="360 300.1 350.35 291.64 341.89 301.3 341.38 293.6 349.83 283.95 359.49 292.4 360 300.1"/><path class="cls-14" d="M350.32,276.67a52.9,52.9,0,0,1,105,1.12"/><polygon class="cls-5" points="445.45 267.81 455.12 276.26 463.56 266.6 464.08 274.29 455.63 283.95 445.96 275.5 445.45 267.81"/><path class="cls-5" d="M391.68,301l-22.12-12.82v-4.91l22.12-14.45v8.48l-13.56,8.08,13.56,7.19Z"/><path class="cls-5" d="M413.06,263.7l-11.92,42.91h-7.57l11.92-42.91Z"/><path class="cls-5" d="M414.72,292.53l13.56-7.19-13.56-8.08v-8.48l22.12,14.45v4.91L414.72,301Z"/></svg>