<svg id="Layer_1" data-name="Layer 1" xmlns="http://www.w3.org/2000/svg" viewBox="0 0 548 390.3"><defs><style>.cls-1{fill:#cbeafb;}.cls-2{fill:none;stroke:#d0d8dc;stroke-miterlimit:10;stroke-width:2px;}.cls-3{fill:#eceff0;}.cls-4{fill:#90a4ae;}.cls-5{fill:#eee;}.cls-6{fill:#b0bec5;}.cls-7{fill:#d0d8dc;}.cls-8{fill:#95c8ec;}.cls-9{fill:#71be72;}.cls-10{fill:#57a7db;}.cls-11{fill:#fff;}.cls-12{fill:#a3d1ee;}.cls-13{fill:#f4ae7a;}.cls-14{fill:#81c784;}</style></defs><title>Legacy-software-modernization</title><g id="_Group_" data-name="&lt;Group&gt;"><g id="_Group_2" data-name="&lt;Group&gt;"><path id="_Compound_Path_" data-name="&lt;Compound Path&gt;" class="cls-1" d="M365.9,332.52,364,331.8a15.77,15.77,0,0,0-.07-4.08l1.75-.8a2.17,2.17,0,0,0,1.08-3l-1-2.34a2.17,2.17,0,0,0-3-1.08l-1.75.8a17.25,17.25,0,0,0-3-2.83l.72-1.86a2.23,2.23,0,0,0-1.25-2.92l-2.32-.84a2.33,2.33,0,0,0-2.92,1.25l-.72,1.86a15.77,15.77,0,0,0-4.08.07l-.8-1.75a2.17,2.17,0,0,0-3-1.08l-2.34,1a2.17,2.17,0,0,0-1.08,3L341,319a17.25,17.25,0,0,0-2.83,3l-1.74-.72a2.33,2.33,0,0,0-2.92,1.25l-.84,2.32a1.87,1.87,0,0,0,.1,1.75,2.12,2.12,0,0,0,1.27,1.18l1.86.72a15.77,15.77,0,0,0,.07,4.08l-1.75.8a2.17,2.17,0,0,0-1.08,3l1,2.34a2.17,2.17,0,0,0,3,1.08l1.75-.8a17.25,17.25,0,0,0,3,2.83l-.72,1.86a1.87,1.87,0,0,0,.1,1.75,2.12,2.12,0,0,0,1.27,1.18l2.32.84a1.87,1.87,0,0,0,1.75-.1,2.12,2.12,0,0,0,1.18-1.27l.72-1.86a15.77,15.77,0,0,0,4.08-.07l.8,1.75a2.17,2.17,0,0,0,3,1.08l2.34-1a2.17,2.17,0,0,0,1.08-3l-1.15-1.64a17.25,17.25,0,0,0,2.83-3l1.86.72a1.87,1.87,0,0,0,1.75-.1,2.12,2.12,0,0,0,1.18-1.27l.84-2.32A2.15,2.15,0,0,0,365.9,332.52Zm-12.4,5.69a8.28,8.28,0,0,1-3.73.78,8.72,8.72,0,0,1-8-5.21,8.85,8.85,0,0,1,4.43-11.71,8.28,8.28,0,0,1,3.73-.78,8.72,8.72,0,0,1,8,5.21A8.81,8.81,0,0,1,353.5,338.21Z"/><path id="_Compound_Path_2" data-name="&lt;Compound Path&gt;" class="cls-1" d="M388.07,339.15l-1-.36a8,8,0,0,0-.09-2.33L388,336a1.19,1.19,0,0,0,.6-1.62L388,333.1a1.19,1.19,0,0,0-1.62-.6l-1.05.45a6.64,6.64,0,0,0-1.61-1.53l.36-1a1.3,1.3,0,0,0-.68-1.64l-1.28-.48a1.35,1.35,0,0,0-1.64.68l-.36,1a8,8,0,0,0-2.33.09l-.45-1.05a1.19,1.19,0,0,0-1.62-.6l-1.29.57a1.19,1.19,0,0,0-.6,1.62l.45,1.05a6.64,6.64,0,0,0-1.53,1.61l-1-.36a1.35,1.35,0,0,0-1.64.68l-.48,1.28a1.28,1.28,0,0,0,0,.93,1,1,0,0,0,.69.71l1,.36a8,8,0,0,0,.09,2.33l-1.05.45a1.19,1.19,0,0,0-.6,1.62l.57,1.29a1.19,1.19,0,0,0,1.62.6l1.05-.45a6.64,6.64,0,0,0,1.61,1.53l-.36,1a1.28,1.28,0,0,0,0,.93,1,1,0,0,0,.69.71l1.28.48a1.28,1.28,0,0,0,.93,0,1.36,1.36,0,0,0,.71-.69l.36-1a8,8,0,0,0,2.33-.09l.45,1.05a1.19,1.19,0,0,0,1.62.6l1.29-.57a1.19,1.19,0,0,0,.6-1.62l-.45-1.05a6.64,6.64,0,0,0,1.53-1.61l1,.36a1.28,1.28,0,0,0,.93,0,1,1,0,0,0,.71-.69l.48-1.28A1.3,1.3,0,0,0,388.07,339.15Zm-6.9,3.19a4.57,4.57,0,0,1-2.1.44,4.85,4.85,0,0,1-4.39-3,4.94,4.94,0,0,1,2.51-6.49,4.57,4.57,0,0,1,2.1-.44,4.85,4.85,0,0,1,4.39,3A5,5,0,0,1,381.16,342.34Z"/><path id="_Compound_Path_3" data-name="&lt;Compound Path&gt;" class="cls-1" d="M411.87,299.94l-3.13-1.2a27,27,0,0,0-.16-6.87l3-1.37a3.85,3.85,0,0,0,1.91-5l-1.71-3.86a3.85,3.85,0,0,0-5-1.91l-3,1.37a21.61,21.61,0,0,0-5.07-4.71l1.2-3.13a3.84,3.84,0,0,0-2.16-4.91l-3.94-1.55a3.94,3.94,0,0,0-4.91,2.16l-1.2,3.13a27,27,0,0,0-6.87.16l-1.37-2.92a3.85,3.85,0,0,0-5-1.91l-3.86,1.82a3.85,3.85,0,0,0-1.91,5l1.37,3a21.61,21.61,0,0,0-4.71,5.07l-3.13-1.2a3.94,3.94,0,0,0-4.91,2.16l-1.55,3.94a3.63,3.63,0,0,0,.09,2.91,3.87,3.87,0,0,0,2.07,2l3.13,1.2a27,27,0,0,0,.16,6.87l-3,1.37a3.85,3.85,0,0,0-1.91,5l1.71,3.86a3.85,3.85,0,0,0,5,1.91l3-1.37a21.61,21.61,0,0,0,5.07,4.71l-1.2,3.13a3.63,3.63,0,0,0,.09,2.91,3.87,3.87,0,0,0,2.07,2l3.94,1.55a3.63,3.63,0,0,0,2.91-.09,3.87,3.87,0,0,0,2-2.07l1.2-3.13a27,27,0,0,0,6.87-.16l1.37,3a3.85,3.85,0,0,0,5,1.91l3.86-1.71a3.85,3.85,0,0,0,1.91-5l-1.37-3a21.61,21.61,0,0,0,4.71-5.07l3.13,1.2a3.63,3.63,0,0,0,2.91-.09,3.87,3.87,0,0,0,2-2.07l1.55-3.94A3.87,3.87,0,0,0,411.87,299.94Zm-20.82,9.68a14.45,14.45,0,0,1-6.18,1.33A14.87,14.87,0,0,1,379,282.48a14.45,14.45,0,0,1,6.18-1.33,14.87,14.87,0,0,1,5.87,28.47Z"/></g></g><polyline class="cls-2" points="197.97 78.9 99.97 78.9 99.97 233.72"/><g id="_Group_3" data-name="&lt;Group&gt;"><rect id="_Path_" data-name="&lt;Path&gt;" class="cls-3" x="40.94" y="211.88" width="278.54" height="158.99"/><rect id="_Path_2" data-name="&lt;Path&gt;" class="cls-4" x="40.94" y="188.3" width="278.54" height="23.58"/><rect id="_Path_3" data-name="&lt;Path&gt;" class="cls-3" x="93.75" y="196.85" width="177.05" height="8.27"/><rect id="_Path_4" data-name="&lt;Path&gt;" class="cls-5" x="58.59" y="196.85" width="11.03" height="8.27"/><rect id="_Path_5" data-name="&lt;Path&gt;" class="cls-5" x="46.04" y="196.85" width="11.03" height="8.27"/><g id="_Group_4" data-name="&lt;Group&gt;"><path id="_Path_6" data-name="&lt;Path&gt;" class="cls-6" d="M296.59,196h0a2.47,2.47,0,0,1-2.48-2.48h0a2.47,2.47,0,0,1,2.48-2.48h0a2.47,2.47,0,0,1,2.48,2.48h0A2.56,2.56,0,0,1,296.59,196Z"/><path id="_Path_7" data-name="&lt;Path&gt;" class="cls-6" d="M304.31,196h0a2.47,2.47,0,0,1-2.48-2.48h0a2.47,2.47,0,0,1,2.48-2.48h0a2.47,2.47,0,0,1,2.48,2.48h0A2.47,2.47,0,0,1,304.31,196Z"/><path id="_Path_8" data-name="&lt;Path&gt;" class="cls-6" d="M312.17,196h0a2.47,2.47,0,0,1-2.48-2.48h0a2.47,2.47,0,0,1,2.48-2.48h0a2.47,2.47,0,0,1,2.48,2.48h0A2.56,2.56,0,0,1,312.17,196Z"/></g></g><rect id="_Path_9" data-name="&lt;Path&gt;" class="cls-4" x="40.94" y="362.46" width="278.54" height="8.55"/><rect id="_Path_10" data-name="&lt;Path&gt;" class="cls-4" x="51.91" y="230.7" width="11.86" height="8.14"/><rect id="_Path_11" data-name="&lt;Path&gt;" class="cls-4" x="51.91" y="244.97" width="11.86" height="8.14"/><rect id="_Path_12" data-name="&lt;Path&gt;" class="cls-4" x="51.91" y="259.23" width="11.86" height="8.14"/><rect id="_Path_13" data-name="&lt;Path&gt;" class="cls-4" x="51.91" y="273.49" width="11.86" height="8.14"/><rect id="_Path_14" data-name="&lt;Path&gt;" class="cls-4" x="51.91" y="287.76" width="11.86" height="8.14"/><rect id="_Path_15" data-name="&lt;Path&gt;" class="cls-4" x="51.91" y="302.02" width="11.86" height="8.14"/><rect id="_Path_16" data-name="&lt;Path&gt;" class="cls-7" x="71.55" y="230.7" width="182.98" height="8.14"/><rect id="_Path_17" data-name="&lt;Path&gt;" class="cls-7" x="71.55" y="244.97" width="142.17" height="8.14"/><rect id="_Path_18" data-name="&lt;Path&gt;" class="cls-7" x="71.55" y="259.23" width="58.74" height="8.14"/><rect id="_Path_19" data-name="&lt;Path&gt;" class="cls-7" x="71.55" y="273.49" width="41.92" height="8.14"/><rect id="_Path_20" data-name="&lt;Path&gt;" class="cls-7" x="71.55" y="287.76" width="62.05" height="8.14"/><rect id="_Path_21" data-name="&lt;Path&gt;" class="cls-7" x="71.55" y="302.02" width="87.42" height="8.14"/><rect id="_Path_22" data-name="&lt;Path&gt;" class="cls-7" x="134.81" y="259.23" width="58.74" height="8.14"/><rect id="_Path_23" data-name="&lt;Path&gt;" class="cls-7" x="118.22" y="273.49" width="41.92" height="8.14"/><rect id="_Path_24" data-name="&lt;Path&gt;" class="cls-7" x="180.21" y="273.49" width="79.15" height="8.14"/><g id="_Group_5" data-name="&lt;Group&gt;"><polygon id="_Path_25" data-name="&lt;Path&gt;" class="cls-6" points="189.19 87 203.19 78.9 189.19 70.8 189.19 87"/></g><g id="_Group_2-2" data-name=" Group 2"><rect class="cls-8" x="202.97" y="31.66" width="308.44" height="215.72"/></g><rect class="cls-9" x="202.97" y="31.66" width="308.44" height="35.34"/><rect class="cls-10" x="202.97" y="245.63" width="308.44" height="11.43"/><path class="cls-11" d="M224.58,57.23l-8.1-8.1,8.1-8.1-2.49-2.49L211.72,48.91l10.39,10.39Zm9.15,0,8.1-8.1-8.1-8.1,2.49-2.49,10.39,10.39-10.4,10.38Z"/><rect class="cls-10" x="211.7" y="83.39" width="74.15" height="68.87"/><rect class="cls-3" x="296.7" y="98.66" width="204.38" height="53.6"/><rect class="cls-1" x="296.7" y="83.66" width="204.38" height="12"/><rect class="cls-3" x="296.7" y="164.79" width="204.38" height="68.87"/><rect class="cls-10" x="211.7" y="164.79" width="74.15" height="68.87"/><rect class="cls-3" x="217.76" y="172.9" width="44.43" height="6.14"/><rect class="cls-3" x="265.51" y="172.9" width="14.93" height="6.14"/><rect class="cls-3" x="217.76" y="182.81" width="31.83" height="6.14"/><rect class="cls-3" x="252.91" y="183.06" width="27.94" height="6.14"/><rect class="cls-3" x="217.76" y="192.72" width="42.25" height="6.14"/><rect class="cls-3" x="263.21" y="192.72" width="11.91" height="6.14"/><rect class="cls-3" x="217.76" y="202.75" width="54.51" height="6.14"/><rect class="cls-3" x="217.76" y="212.65" width="31.49" height="6.14"/><rect class="cls-3" x="252.22" y="212.65" width="20.04" height="6.14"/><rect class="cls-3" x="217.76" y="222.56" width="54.51" height="6.14"/><circle class="cls-11" cx="246.85" cy="117.66" r="28"/><circle class="cls-10" cx="246.85" cy="106.66" r="9"/><path class="cls-10" d="M246.85,137.66A20,20,0,0,0,264.52,127a19.12,19.12,0,0,0-15.77-8.36H245A19.12,19.12,0,0,0,229.18,127,20,20,0,0,0,246.85,137.66Z"/><rect class="cls-12" x="304.76" y="171.9" width="140.2" height="6.14"/><rect class="cls-12" x="455.44" y="171.9" width="30.34" height="6.14"/><rect class="cls-12" x="304.76" y="181.81" width="100.45" height="6.14"/><rect class="cls-12" x="415.69" y="182.06" width="71.39" height="6.14"/><rect class="cls-12" x="304.76" y="191.72" width="133.33" height="6.14"/><rect class="cls-12" x="448.2" y="191.72" width="37.58" height="6.14"/><rect class="cls-12" x="304.76" y="201.75" width="172.01" height="6.14"/><rect class="cls-12" x="304.76" y="211.65" width="99.36" height="6.14"/><rect class="cls-12" x="413.5" y="211.65" width="63.24" height="6.14"/><rect class="cls-12" x="304.76" y="221.56" width="172.01" height="6.14"/><rect class="cls-13" x="307.34" y="105.66" width="39" height="39"/><rect class="cls-14" x="355.25" y="105.66" width="39" height="39"/><rect class="cls-10" x="403.15" y="105.66" width="39" height="39"/><rect class="cls-6" x="451.05" y="105.66" width="39" height="39"/><circle class="cls-9" cx="99.97" cy="133.66" r="36.99"/><path class="cls-11" d="M82.14,135.12l6.47-4a1.46,1.46,0,0,0-.44-2.65l-2.48-.58a15,15,0,0,1,27.92,0,2.82,2.82,0,1,0,5.23-2.11,20.68,20.68,0,0,0-38.69.87L77.67,126a1.46,1.46,0,0,0-1.56,2.19l4,6.46a1.45,1.45,0,0,0,2,.47Zm0,0"/><path class="cls-11" d="M122.9,140.26,119,133.71a1.46,1.46,0,0,0-2-.5l-6.54,3.91a1.45,1.45,0,0,0,.39,2.66l2.5.63a15,15,0,0,1-27.41-.64,2.82,2.82,0,1,0-5.19,2.2A20.71,20.71,0,0,0,99.4,154.56h.39a20.59,20.59,0,0,0,19.1-12.76l2.41.61a1.46,1.46,0,0,0,1.61-2.16Zm0,0"/></svg>